<mxfile host="app.diagrams.net" modified="2021-03-26T13:25:41.974Z" agent="5.0 (Macintosh; Intel Mac OS X 10_15_5) AppleWebKit/605.1.15 (KHTML, like Gecko) Version/13.1.1 Safari/605.1.15" etag="fF5_4KsbJvK2530aBl-W" version="14.5.1" type="github">
  <diagram id="0OXHQ_Jyn1BdOZTZz_BP" name="Page-1">
    <mxGraphModel dx="652" dy="457" grid="1" gridSize="10" guides="1" tooltips="1" connect="1" arrows="1" fold="1" page="1" pageScale="1" pageWidth="827" pageHeight="1169" math="0" shadow="0">
      <root>
        <mxCell id="0" />
        <mxCell id="1" parent="0" />
        <mxCell id="HxwKfh-mOO4dva4nsjCU-7" style="edgeStyle=orthogonalEdgeStyle;curved=1;rounded=0;sketch=1;orthogonalLoop=1;jettySize=auto;html=1;exitX=1;exitY=0.5;exitDx=0;exitDy=0;entryX=0;entryY=0.5;entryDx=0;entryDy=0;fontFamily=Comic Sans MS;fillColor=#dae8fc;strokeColor=#6c8ebf;" edge="1" parent="1" source="HxwKfh-mOO4dva4nsjCU-19" target="HxwKfh-mOO4dva4nsjCU-2">
          <mxGeometry relative="1" as="geometry" />
        </mxCell>
        <mxCell id="HxwKfh-mOO4dva4nsjCU-8" style="edgeStyle=orthogonalEdgeStyle;curved=1;rounded=0;sketch=1;orthogonalLoop=1;jettySize=auto;html=1;exitX=1;exitY=0.5;exitDx=0;exitDy=0;entryX=-0.02;entryY=0.668;entryDx=0;entryDy=0;fontFamily=Comic Sans MS;entryPerimeter=0;fillColor=#d5e8d4;strokeColor=#82b366;" edge="1" parent="1" source="HxwKfh-mOO4dva4nsjCU-21" target="HxwKfh-mOO4dva4nsjCU-2">
          <mxGeometry relative="1" as="geometry" />
        </mxCell>
        <mxCell id="HxwKfh-mOO4dva4nsjCU-1" value="Host" style="rounded=0;whiteSpace=wrap;html=1;fontFamily=Comic Sans MS;sketch=1;fillColor=#fff2cc;strokeColor=#d6b656;fillStyle=solid;" vertex="1" parent="1">
          <mxGeometry x="160" y="120" width="100" height="400" as="geometry" />
        </mxCell>
        <mxCell id="HxwKfh-mOO4dva4nsjCU-6" style="edgeStyle=orthogonalEdgeStyle;curved=1;rounded=0;sketch=1;orthogonalLoop=1;jettySize=auto;html=1;exitX=0;exitY=0.5;exitDx=0;exitDy=0;entryX=0.99;entryY=0.375;entryDx=0;entryDy=0;fontFamily=Comic Sans MS;entryPerimeter=0;fillColor=#dae8fc;strokeColor=#6c8ebf;" edge="1" parent="1" source="HxwKfh-mOO4dva4nsjCU-17" target="HxwKfh-mOO4dva4nsjCU-1">
          <mxGeometry relative="1" as="geometry" />
        </mxCell>
        <mxCell id="HxwKfh-mOO4dva4nsjCU-9" style="edgeStyle=orthogonalEdgeStyle;curved=1;rounded=0;sketch=1;orthogonalLoop=1;jettySize=auto;html=1;exitX=0;exitY=0.5;exitDx=0;exitDy=0;entryX=1;entryY=0.865;entryDx=0;entryDy=0;fontFamily=Comic Sans MS;entryPerimeter=0;fillColor=#f8cecc;strokeColor=#b85450;" edge="1" parent="1" source="HxwKfh-mOO4dva4nsjCU-23" target="HxwKfh-mOO4dva4nsjCU-1">
          <mxGeometry relative="1" as="geometry" />
        </mxCell>
        <mxCell id="HxwKfh-mOO4dva4nsjCU-2" value="Remote" style="rounded=0;whiteSpace=wrap;html=1;fontFamily=Comic Sans MS;sketch=1;fillColor=#fff2cc;strokeColor=#d6b656;fillStyle=solid;" vertex="1" parent="1">
          <mxGeometry x="500" y="120" width="100" height="400" as="geometry" />
        </mxCell>
        <mxCell id="HxwKfh-mOO4dva4nsjCU-3" value="" style="endArrow=none;dashed=1;html=1;fontFamily=Comic Sans MS;sketch=1;fillColor=#6a00ff;strokeColor=#3700CC;" edge="1" parent="1">
          <mxGeometry width="50" height="50" relative="1" as="geometry">
            <mxPoint x="140" y="230" as="sourcePoint" />
            <mxPoint x="620" y="230" as="targetPoint" />
          </mxGeometry>
        </mxCell>
        <mxCell id="HxwKfh-mOO4dva4nsjCU-4" value="" style="endArrow=classic;html=1;fontFamily=Comic Sans MS;entryX=0;entryY=0.153;entryDx=0;entryDy=0;entryPerimeter=0;dashed=1;dashPattern=1 1;sketch=1;fillColor=#ffe6cc;strokeColor=#d79b00;exitX=1;exitY=0.5;exitDx=0;exitDy=0;" edge="1" parent="1" source="HxwKfh-mOO4dva4nsjCU-13" target="HxwKfh-mOO4dva4nsjCU-2">
          <mxGeometry width="50" height="50" relative="1" as="geometry">
            <mxPoint x="259" y="181" as="sourcePoint" />
            <mxPoint x="460" y="310" as="targetPoint" />
          </mxGeometry>
        </mxCell>
        <mxCell id="HxwKfh-mOO4dva4nsjCU-13" value="Observable Id" style="rounded=0;whiteSpace=wrap;html=1;sketch=1;fontFamily=Comic Sans MS;strokeColor=#d79b00;fontColor=#CC6600;fillColor=#FFE6CC;fillStyle=solid;" vertex="1" parent="1">
          <mxGeometry x="320" y="166" width="120" height="30" as="geometry" />
        </mxCell>
        <mxCell id="HxwKfh-mOO4dva4nsjCU-16" value="" style="endArrow=none;html=1;fontFamily=Comic Sans MS;entryX=0;entryY=0.5;entryDx=0;entryDy=0;sketch=1;fillColor=#ffe6cc;strokeColor=#d79b00;endFill=0;" edge="1" parent="1" target="HxwKfh-mOO4dva4nsjCU-13">
          <mxGeometry width="50" height="50" relative="1" as="geometry">
            <mxPoint x="259" y="181" as="sourcePoint" />
            <mxPoint x="500" y="181.19999999999993" as="targetPoint" />
          </mxGeometry>
        </mxCell>
        <mxCell id="HxwKfh-mOO4dva4nsjCU-17" value="SUB &amp;nbsp; &amp;nbsp;Obs. Id" style="rounded=0;whiteSpace=wrap;html=1;sketch=1;fontFamily=Comic Sans MS;strokeColor=#6c8ebf;fillStyle=solid;fillColor=#dae8fc;fontColor=#007FFF;" vertex="1" parent="1">
          <mxGeometry x="320" y="255" width="120" height="30" as="geometry" />
        </mxCell>
        <mxCell id="HxwKfh-mOO4dva4nsjCU-18" style="edgeStyle=orthogonalEdgeStyle;curved=1;rounded=0;sketch=1;orthogonalLoop=1;jettySize=auto;html=1;exitX=0;exitY=0.375;exitDx=0;exitDy=0;entryX=1;entryY=0.5;entryDx=0;entryDy=0;fontFamily=Comic Sans MS;exitPerimeter=0;fillColor=#dae8fc;strokeColor=#6c8ebf;endArrow=none;endFill=0;" edge="1" parent="1" source="HxwKfh-mOO4dva4nsjCU-2" target="HxwKfh-mOO4dva4nsjCU-17">
          <mxGeometry relative="1" as="geometry">
            <mxPoint x="500" y="270.0000000000001" as="sourcePoint" />
            <mxPoint x="258.9999999999999" y="270.0000000000001" as="targetPoint" />
          </mxGeometry>
        </mxCell>
        <mxCell id="HxwKfh-mOO4dva4nsjCU-19" value="SUBBED &amp;nbsp; Obs. Id &amp;nbsp; Sub. Id" style="rounded=0;whiteSpace=wrap;html=1;sketch=1;fontFamily=Comic Sans MS;strokeColor=#6c8ebf;fillColor=#dae8fc;fillStyle=solid;fontColor=#007FFF;" vertex="1" parent="1">
          <mxGeometry x="300" y="302.5" width="160" height="35" as="geometry" />
        </mxCell>
        <mxCell id="HxwKfh-mOO4dva4nsjCU-20" style="edgeStyle=orthogonalEdgeStyle;curved=1;rounded=0;sketch=1;orthogonalLoop=1;jettySize=auto;html=1;exitX=1;exitY=0.5;exitDx=0;exitDy=0;entryX=0;entryY=0.5;entryDx=0;entryDy=0;fontFamily=Comic Sans MS;fillColor=#dae8fc;strokeColor=#6c8ebf;endArrow=none;endFill=0;" edge="1" parent="1" source="HxwKfh-mOO4dva4nsjCU-1" target="HxwKfh-mOO4dva4nsjCU-19">
          <mxGeometry relative="1" as="geometry">
            <mxPoint x="259.9999999999999" y="320.0000000000001" as="sourcePoint" />
            <mxPoint x="500" y="320.0000000000001" as="targetPoint" />
          </mxGeometry>
        </mxCell>
        <mxCell id="HxwKfh-mOO4dva4nsjCU-21" value="DATA &amp;nbsp; Sub. Id &amp;nbsp; Data" style="rounded=0;whiteSpace=wrap;html=1;sketch=1;fontFamily=Comic Sans MS;strokeColor=#82b366;fillColor=#CCFFCC;fillStyle=solid;fontColor=#009900;" vertex="1" parent="1">
          <mxGeometry x="310" y="372" width="140" height="30" as="geometry" />
        </mxCell>
        <mxCell id="HxwKfh-mOO4dva4nsjCU-22" style="edgeStyle=orthogonalEdgeStyle;curved=1;rounded=0;sketch=1;orthogonalLoop=1;jettySize=auto;html=1;exitX=1;exitY=0.668;exitDx=0;exitDy=0;entryX=0;entryY=0.5;entryDx=0;entryDy=0;fontFamily=Comic Sans MS;exitPerimeter=0;fillColor=#d5e8d4;strokeColor=#82b366;endArrow=none;endFill=0;" edge="1" parent="1" source="HxwKfh-mOO4dva4nsjCU-1" target="HxwKfh-mOO4dva4nsjCU-21">
          <mxGeometry relative="1" as="geometry">
            <mxPoint x="259.9999999999999" y="387.19999999999993" as="sourcePoint" />
            <mxPoint x="497.9999999999998" y="387.19999999999993" as="targetPoint" />
          </mxGeometry>
        </mxCell>
        <mxCell id="HxwKfh-mOO4dva4nsjCU-23" value="UNSUB &amp;nbsp; &amp;nbsp;Obs. Id &amp;nbsp; &amp;nbsp;Sub. Id" style="rounded=0;whiteSpace=wrap;html=1;sketch=1;fontFamily=Comic Sans MS;strokeColor=#b85450;fillColor=#FFCCCC;fillStyle=solid;fontColor=#FF3333;" vertex="1" parent="1">
          <mxGeometry x="300" y="446" width="160" height="40" as="geometry" />
        </mxCell>
        <mxCell id="HxwKfh-mOO4dva4nsjCU-24" style="edgeStyle=orthogonalEdgeStyle;curved=1;rounded=0;sketch=1;orthogonalLoop=1;jettySize=auto;html=1;exitX=0.01;exitY=0.865;exitDx=0;exitDy=0;entryX=1;entryY=0.5;entryDx=0;entryDy=0;fontFamily=Comic Sans MS;exitPerimeter=0;fillColor=#f8cecc;strokeColor=#b85450;endArrow=none;endFill=0;" edge="1" parent="1" source="HxwKfh-mOO4dva4nsjCU-2" target="HxwKfh-mOO4dva4nsjCU-23">
          <mxGeometry relative="1" as="geometry">
            <mxPoint x="501" y="466" as="sourcePoint" />
            <mxPoint x="260" y="466" as="targetPoint" />
          </mxGeometry>
        </mxCell>
        <mxCell id="HxwKfh-mOO4dva4nsjCU-28" style="edgeStyle=orthogonalEdgeStyle;curved=1;rounded=0;sketch=1;orthogonalLoop=1;jettySize=auto;html=1;exitX=0.438;exitY=-0.041;exitDx=0;exitDy=0;entryX=0.44;entryY=0.987;entryDx=0;entryDy=0;endArrow=none;endFill=0;fontFamily=Comic Sans MS;fontColor=#007FFF;entryPerimeter=0;exitPerimeter=0;fillColor=#dae8fc;strokeColor=#6c8ebf;" edge="1" parent="1" source="HxwKfh-mOO4dva4nsjCU-17" target="HxwKfh-mOO4dva4nsjCU-17">
          <mxGeometry relative="1" as="geometry" />
        </mxCell>
        <mxCell id="HxwKfh-mOO4dva4nsjCU-30" style="edgeStyle=orthogonalEdgeStyle;curved=1;rounded=0;sketch=1;orthogonalLoop=1;jettySize=auto;html=1;entryX=0.338;entryY=1.014;entryDx=0;entryDy=0;endArrow=none;endFill=0;fontFamily=Comic Sans MS;fontColor=#007FFF;entryPerimeter=0;fillColor=#dae8fc;strokeColor=#6c8ebf;" edge="1" parent="1" target="HxwKfh-mOO4dva4nsjCU-19">
          <mxGeometry relative="1" as="geometry">
            <mxPoint x="354" y="302" as="sourcePoint" />
          </mxGeometry>
        </mxCell>
        <mxCell id="HxwKfh-mOO4dva4nsjCU-31" style="edgeStyle=orthogonalEdgeStyle;curved=1;rounded=0;sketch=1;orthogonalLoop=1;jettySize=auto;html=1;entryX=0.684;entryY=-0.007;entryDx=0;entryDy=0;endArrow=none;endFill=0;fontFamily=Comic Sans MS;fontColor=#007FFF;entryPerimeter=0;fillColor=#dae8fc;strokeColor=#6c8ebf;" edge="1" parent="1" target="HxwKfh-mOO4dva4nsjCU-19">
          <mxGeometry relative="1" as="geometry">
            <mxPoint x="409" y="338" as="sourcePoint" />
          </mxGeometry>
        </mxCell>
        <mxCell id="HxwKfh-mOO4dva4nsjCU-32" style="edgeStyle=orthogonalEdgeStyle;curved=1;rounded=0;sketch=1;orthogonalLoop=1;jettySize=auto;html=1;entryX=0.352;entryY=-0.036;entryDx=0;entryDy=0;endArrow=none;endFill=0;fontFamily=Comic Sans MS;fontColor=#009900;exitX=0.345;exitY=0.996;exitDx=0;exitDy=0;exitPerimeter=0;entryPerimeter=0;fillColor=#d5e8d4;strokeColor=#82b366;" edge="1" parent="1" source="HxwKfh-mOO4dva4nsjCU-21" target="HxwKfh-mOO4dva4nsjCU-21">
          <mxGeometry relative="1" as="geometry">
            <mxPoint x="345" y="402" as="sourcePoint" />
          </mxGeometry>
        </mxCell>
        <mxCell id="HxwKfh-mOO4dva4nsjCU-33" style="edgeStyle=orthogonalEdgeStyle;curved=1;rounded=0;sketch=1;orthogonalLoop=1;jettySize=auto;html=1;entryX=0.721;entryY=-0.01;entryDx=0;entryDy=0;endArrow=none;endFill=0;fontFamily=Comic Sans MS;fontColor=#009900;entryPerimeter=0;fillColor=#d5e8d4;strokeColor=#82b366;" edge="1" parent="1" target="HxwKfh-mOO4dva4nsjCU-21">
          <mxGeometry relative="1" as="geometry">
            <mxPoint x="411" y="402" as="sourcePoint" />
          </mxGeometry>
        </mxCell>
        <mxCell id="HxwKfh-mOO4dva4nsjCU-34" style="edgeStyle=orthogonalEdgeStyle;curved=1;rounded=0;sketch=1;orthogonalLoop=1;jettySize=auto;html=1;exitX=0.308;exitY=0.981;exitDx=0;exitDy=0;entryX=0.308;entryY=0.021;entryDx=0;entryDy=0;endArrow=none;endFill=0;fontFamily=Comic Sans MS;fontColor=#FF3333;entryPerimeter=0;exitPerimeter=0;fillColor=#f8cecc;strokeColor=#b85450;" edge="1" parent="1" source="HxwKfh-mOO4dva4nsjCU-23" target="HxwKfh-mOO4dva4nsjCU-23">
          <mxGeometry relative="1" as="geometry" />
        </mxCell>
        <mxCell id="HxwKfh-mOO4dva4nsjCU-35" style="edgeStyle=orthogonalEdgeStyle;curved=1;rounded=0;sketch=1;orthogonalLoop=1;jettySize=auto;html=1;exitX=0.677;exitY=0.967;exitDx=0;exitDy=0;entryX=0.675;entryY=0.033;entryDx=0;entryDy=0;endArrow=none;endFill=0;fontFamily=Comic Sans MS;fontColor=#FF3333;entryPerimeter=0;exitPerimeter=0;fillColor=#f8cecc;strokeColor=#b85450;" edge="1" parent="1" source="HxwKfh-mOO4dva4nsjCU-23" target="HxwKfh-mOO4dva4nsjCU-23">
          <mxGeometry relative="1" as="geometry" />
        </mxCell>
        <mxCell id="HxwKfh-mOO4dva4nsjCU-36" value="[2]" style="text;html=1;strokeColor=none;fillColor=none;align=right;verticalAlign=middle;whiteSpace=wrap;rounded=0;sketch=1;fontFamily=Comic Sans MS;fontColor=#CC6600;" vertex="1" parent="1">
          <mxGeometry x="210" y="171" width="40" height="20" as="geometry" />
        </mxCell>
        <mxCell id="HxwKfh-mOO4dva4nsjCU-37" value="[1]" style="text;html=1;strokeColor=none;fillColor=none;align=right;verticalAlign=middle;whiteSpace=wrap;rounded=0;sketch=1;fontFamily=Comic Sans MS;fontColor=#CC6600;" vertex="1" parent="1">
          <mxGeometry x="210" y="151" width="40" height="20" as="geometry" />
        </mxCell>
        <mxCell id="HxwKfh-mOO4dva4nsjCU-38" value="[3]" style="text;html=1;strokeColor=none;fillColor=none;align=left;verticalAlign=middle;whiteSpace=wrap;rounded=0;sketch=1;fontFamily=Comic Sans MS;fontColor=#CC6600;" vertex="1" parent="1">
          <mxGeometry x="510" y="191" width="40" height="20" as="geometry" />
        </mxCell>
        <mxCell id="HxwKfh-mOO4dva4nsjCU-39" value="[4]" style="text;html=1;strokeColor=none;fillColor=none;align=left;verticalAlign=middle;whiteSpace=wrap;rounded=0;sketch=1;fontFamily=Comic Sans MS;fontColor=#007FFF;" vertex="1" parent="1">
          <mxGeometry x="510" y="260" width="40" height="20" as="geometry" />
        </mxCell>
        <mxCell id="HxwKfh-mOO4dva4nsjCU-40" value="[5]" style="text;html=1;strokeColor=none;fillColor=none;align=right;verticalAlign=middle;whiteSpace=wrap;rounded=0;sketch=1;fontFamily=Comic Sans MS;fontColor=#007FFF;" vertex="1" parent="1">
          <mxGeometry x="210" y="310" width="40" height="20" as="geometry" />
        </mxCell>
        <mxCell id="HxwKfh-mOO4dva4nsjCU-41" value="[6]" style="text;html=1;strokeColor=none;fillColor=none;align=right;verticalAlign=middle;whiteSpace=wrap;rounded=0;sketch=1;fontFamily=Comic Sans MS;fontColor=#009900;" vertex="1" parent="1">
          <mxGeometry x="210" y="377" width="40" height="20" as="geometry" />
        </mxCell>
        <mxCell id="HxwKfh-mOO4dva4nsjCU-42" value="[7]" style="text;html=1;strokeColor=none;fillColor=none;align=left;verticalAlign=middle;whiteSpace=wrap;rounded=0;sketch=1;fontFamily=Comic Sans MS;fontColor=#FF3333;" vertex="1" parent="1">
          <mxGeometry x="510" y="456" width="40" height="20" as="geometry" />
        </mxCell>
      </root>
    </mxGraphModel>
  </diagram>
</mxfile>
